<?xml version="1.0" standalone="no"?>
<!DOCTYPE svg PUBLIC "-//W3C//DTD SVG 1.1//EN"
"http://www.w3.org/Graphics/SVG/1.1/DTD/svg11.dtd">

<svg xmlns="http://www.w3.org/2000/svg" version="1.1" width="300" height="300">

  <style type="text/css" >
      <![CDATA[
        text {
                font: 8px sans-serif;
        }
	.node circle {
		fill: #fff;
		stroke: steelblue;
		stroke-width: 1.5px;
	}
	
	.node {
		font: 8px sans-serif;
	}

	.link {
		fill: none;
		stroke: #ccc;
		stroke-width: 1.5px;
	}


        ]]>
    </style>

<g transform="translate(40)">
<path class="link" d="M70,268.33333333333337C105,268.33333333333337 105,268.33333333333337 140,268.33333333333337" />
<path class="link" d="M70,221.66666666666663C105,221.66666666666663 105,221.66666666666663 140,221.66666666666663" />
<path class="link" d="M70,175C105,175 105,175 140,175" />
<path class="link" d="M70,35C105,35 105,35 140,35" />
<path class="link" d="M0,140C35,140 35,11.666666666666629 70,11.666666666666629" />
<path class="link" d="M0,140C35,140 35,35 70,35" />
<path class="link" d="M0,140C35,140 35,58.33333333333337 70,58.33333333333337" />
<path class="link" d="M0,140C35,140 35,81.66666666666663 70,81.66666666666663" />
<path class="link" d="M0,140C35,140 35,105 70,105" />
<path class="link" d="M0,140C35,140 35,128.33333333333326 70,128.33333333333326" />
<path class="link" d="M0,140C35,140 35,151.66666666666663 70,151.66666666666663" />
<path class="link" d="M0,140C35,140 35,175 70,175" />
<path class="link" d="M0,140C35,140 35,221.66666666666663 70,221.66666666666663" />
<path class="link" d="M0,140C35,140 35,245 70,245" />
<path class="link" d="M0,140C35,140 35,268.33333333333337 70,268.33333333333337" />
<g class="node" cursor="pointer" transform="translate(140, 268.333) rotate(0) skewX(0) scale(1)">
<circle r="4.5" style="fill: rgb(176, 196, 222);" />
<text x="8" y="3">montulli</text>
</g>
<g class="node" cursor="pointer" transform="translate(70, 268.333) rotate(0) skewX(0) scale(1)">
<circle r="4.5" style="fill: rgb(176, 196, 222);" />
<text x="8" y="3">Zetta Videos</text>
</g>
<g class="node" cursor="pointer" transform="translate(70, 245) rotate(0) skewX(0) scale(1)">
<circle r="4.5" style="fill: rgb(176, 196, 222);" />
<text x="8" y="3">Lou's MBA ceremony</text>
</g>
<g class="node" cursor="pointer" transform="translate(140, 221.667) rotate(0) skewX(0) scale(1)">
<circle r="4.5" style="fill: rgb(176, 196, 222);" />
<text x="8" y="3">Jill Baby Vid 2009_01_19_23_40_07</text>
</g>
<g class="node" cursor="pointer" transform="translate(70, 221.667) rotate(0) skewX(0) scale(1)">
<circle r="4.5" style="fill: rgb(176, 196, 222);" />
<text x="8" y="3">Jill Baby Vid</text>
</g>
<g class="node" cursor="pointer" transform="translate(140, 175) rotate(0) skewX(0) scale(1)">
<circle r="4.5" style="fill: rgb(176, 196, 222);" />
<text x="8" y="3">palm</text>
</g>
<g class="node" cursor="pointer" transform="translate(70, 175) rotate(0) skewX(0) scale(1)">
<circle r="4.5" style="fill: rgb(176, 196, 222);" />
<text x="8" y="3">Jamie videos</text>
</g>
<g class="node" cursor="pointer" transform="translate(70, 151.667) rotate(0) skewX(0) scale(1)">
<circle r="4.5" style="fill: rgb(176, 196, 222);" />
<text x="8" y="3">2010 Helmet Cam</text>
</g>
<g class="node" cursor="pointer" transform="translate(70, 128.333) rotate(0) skewX(0) scale(1)">
<circle r="4.5" style="fill: rgb(176, 196, 222);" />
<text x="8" y="3">2009-01 Island Lake Lodge CatSkiing Helmet Cam</text>
</g>
<g class="node" cursor="pointer" transform="translate(70, 105) rotate(0) skewX(0) scale(1)">
<circle r="4.5" style="fill: rgb(176, 196, 222);" />
<text x="8" y="3">2009 Family HelmetCam videos</text>
</g>
<g class="node" cursor="pointer" transform="translate(70, 81.6667) rotate(0) skewX(0) scale(1)">
<circle r="4.5" style="fill: rgb(176, 196, 222);" />
<text x="8" y="3">2008-01 Island Lake Lodge CatSkiing Helmet Cam</text>
</g>
<g class="node" cursor="pointer" transform="translate(70, 58.3333) rotate(0) skewX(0) scale(1)">
<circle r="4.5" style="fill: rgb(176, 196, 222);" />
<text x="8" y="3">2005 Disney</text>
</g>
<g class="node" cursor="pointer" transform="translate(140, 35) rotate(0) skewX(0) scale(1)">
<circle r="4.5" style="fill: rgb(176, 196, 222);" />
<text x="8" y="3">Wedding Video</text>
</g>
<g class="node" cursor="pointer" transform="translate(70, 35) rotate(0) skewX(0) scale(1)">
<circle r="4.5" style="fill: rgb(176, 196, 222);" />
<text x="8" y="3">Wedding</text>
</g>
<g class="node" cursor="pointer" transform="translate(70, 11.6667) rotate(0) skewX(0) scale(1)">
<circle r="4.5" style="fill: rgb(176, 196, 222);" />
<text x="8" y="3">1998 Pie Guys Band</text>
</g>
<g class="node" cursor="pointer" transform="translate(0, 140) rotate(0) skewX(0) scale(1)">
<circle r="4.5" style="fill: rgb(176, 196, 222);" />
<text x="8" y="3">ALL</text>
</g>
</g>
</svg>

