<?xml version="1.0" standalone="no"?>
<!DOCTYPE svg PUBLIC "-//W3C//DTD SVG 1.1//EN"
"http://www.w3.org/Graphics/SVG/1.1/DTD/svg11.dtd">

<svg xmlns="http://www.w3.org/2000/svg" version="1.1" width="160" height="160">

  <style type="text/css" >
      <![CDATA[
        text {
                font: 6px sans-serif;
        }

        ]]>
    </style>


<g transform="translate(80, 80)">
<path id="path-0" d="M0,17.98057733312161A17.98057733312161,17.98057733312161 0 1,1 0,-17.98057733312161A17.98057733312161,17.98057733312161 0 1,1 0,17.98057733312161Z" fill-rule="evenodd" style="fill: rgb(49, 130, 189);">
<title>Zoom Sunburst</title>
</path>
<path id="path-1" d="M2.7109623285335827e-15,-44.2733746647778A44.2733746647778,44.2733746647778 0 0,1 23.935993470283417,-37.24513284710283L9.721034027702457,-15.12622420383281A17.98057733312161,17.98057733312161 0 0,0 1.1009928238914414e-15,-17.98057733312161Z" fill-rule="evenodd" style="fill: rgb(49, 130, 189);">
<title>1998 Pie Guys Band 10.5 G</title>
</path>
<path id="path-2" d="M23.935993470283417,-37.24513284710283A44.2733746647778,44.2733746647778 0 0,1 40.272478137400014,-18.391824512006057L16.355708437153634,-7.469401766620137A17.98057733312161,17.98057733312161 0 0,0 9.721034027702457,-15.12622420383281Z" fill-rule="evenodd" style="fill: rgb(107, 174, 214);">
<title>2001 Wedding Video 12.1 G</title>
</path>
<path id="path-3" d="M40.548061309169825,-63.09401496233858A75,75 0 0,1 68.22239965158889,-31.156125975141478L40.272478137400014,-18.391824512006057A44.2733746647778,44.2733746647778 0 0,0 23.935993470283417,-37.24513284710283Z" fill-rule="evenodd" style="fill: rgb(107, 174, 214);">
<title>2001 Wedding Video 1.5mbs 855.7 M</title>
</path>
<path id="path-4" d="M40.272478137400014,-18.391824512006057A44.2733746647778,44.2733746647778 0 0,1 43.82273554762512,6.300758155230408L17.797560981722047,2.558902955223497A17.98057733312161,17.98057733312161 0 0,0 16.355708437153634,-7.469401766620137Z" fill-rule="evenodd" style="fill: rgb(49, 130, 189);">
<title>2005 Disney 3034.0 M</title>
</path>
<path id="path-5" d="M43.82273554762512,6.300758155230408A44.2733746647778,44.2733746647778 0 0,1 33.45958405813242,28.99289462721098L13.58881366615048,11.774774069127973A17.98057733312161,17.98057733312161 0 0,0 17.797560981722047,2.558902955223497Z" fill-rule="evenodd" style="fill: rgb(49, 130, 189);">
<title>2008-01 Island Lake Lodge CatSkiing Helmet Cam 11.0 G</title>
</path>
<path id="path-6" d="M33.45958405813242,28.99289462721098A44.2733746647778,44.2733746647778 0 0,1 12.473251044306421,42.4799919090564L5.065714025545405,17.25223761266228A17.98057733312161,17.98057733312161 0 0,0 13.58881366615048,11.774774069127973Z" fill-rule="evenodd" style="fill: rgb(49, 130, 189);">
<title>2009 Family HelmetCam videos 5005.0 M</title>
</path>
<path id="path-7" d="M12.473251044306421,42.4799919090564A44.2733746647778,44.2733746647778 0 0,1 -12.473251044306433,42.4799919090564L-5.065714025545409,17.25223761266228A17.98057733312161,17.98057733312161 0 0,0 5.065714025545405,17.25223761266228Z" fill-rule="evenodd" style="fill: rgb(49, 130, 189);">
<title>2009-01 Island Lake Lodge CatSkiing Helmet Cam 13.0 G</title>
</path>
<path id="path-8" d="M-12.473251044306433,42.4799919090564A44.2733746647778,44.2733746647778 0 0,1 -33.45958405813245,28.992894627210955L-13.58881366615049,11.774774069127965A17.98057733312161,17.98057733312161 0 0,0 -5.065714025545409,17.25223761266228Z" fill-rule="evenodd" style="fill: rgb(49, 130, 189);">
<title>2010 Helmet Cam 6593.6 M</title>
</path>
<path id="path-9" d="M-33.45958405813245,28.992894627210955A44.2733746647778,44.2733746647778 0 0,1 -43.82273554762512,6.300758155230375L-17.79756098172205,2.5589029552234837A17.98057733312161,17.98057733312161 0 0,0 -13.58881366615049,11.774774069127965Z" fill-rule="evenodd" style="fill: rgb(158, 202, 225);">
<title>Jamie videos 989.8 M</title>
</path>
<path id="path-10" d="M-56.681218076569415,49.11455504589634A75,75 0 0,1 -74.23660814106996,10.673612870496322L-43.82273554762512,6.300758155230375A44.2733746647778,44.2733746647778 0 0,0 -33.45958405813245,28.992894627210955Z" fill-rule="evenodd" style="fill: rgb(158, 202, 225);">
<title>palm 989.8 M</title>
</path>
<path id="path-11" d="M-43.82273554762512,6.300758155230375A44.2733746647778,44.2733746647778 0 0,1 -40.2724781374,-18.391824512006078L-16.35570843715363,-7.4694017666201455A17.98057733312161,17.98057733312161 0 0,0 -17.79756098172205,2.5589029552234837Z" fill-rule="evenodd" style="fill: rgb(198, 219, 239);">
<title>Jill Baby Vid 3851.9 M</title>
</path>
<path id="path-12" d="M-74.23660814106996,10.673612870496322A75,75 0 0,1 -68.22239965158886,-31.156125975141517L-40.2724781374,-18.391824512006078A44.2733746647778,44.2733746647778 0 0,0 -43.82273554762512,6.300758155230375Z" fill-rule="evenodd" style="fill: rgb(198, 219, 239);">
<title>Jill Baby Vid 2009_01_19_23_40_07 159.5 M</title>
</path>
<path id="path-13" d="M-40.2724781374,-18.391824512006078A44.2733746647778,44.2733746647778 0 0,1 -23.93599347028337,-37.24513284710286L-9.721034027702439,-15.126224203832821A17.98057733312161,17.98057733312161 0 0,0 -16.35570843715363,-7.4694017666201455Z" fill-rule="evenodd" style="fill: rgb(49, 130, 189);">
<title>Lou's MBA ceremony 5048.0 M</title>
</path>
<path id="path-14" d="M-23.93599347028337,-37.24513284710286A44.2733746647778,44.2733746647778 0 0,1 -8.132886985600747e-15,-44.2733746647778L-3.3029784716743243e-15,-17.98057733312161A17.98057733312161,17.98057733312161 0 0,0 -9.721034027702439,-15.126224203832821Z" fill-rule="evenodd" style="fill: rgb(230, 85, 13);">
<title>Zetta Videos 3.5 G </title>
</path>
<path id="path-15" d="M-40.54806130916975,-63.09401496233863A75,75 0 0,1 -1.3777276490407723e-14,-75L-8.132886985600747e-15,-44.2733746647778A44.2733746647778,44.2733746647778 0 0,0 -23.93599347028337,-37.24513284710286Z" fill-rule="evenodd" style="fill: rgb(230, 85, 13);">
<title>montul 0 </title>
</path>
<text style="opacity: 1; fill: rgb(0, 0, 0);" text-anchor="start" dy=".2em" transform="rotate(89.5) translate(5) rotate(0)">
<tspan x="0" />
<tspan x="0" dy="1em" />
</text>
<text style="opacity: 1; fill: rgb(0, 0, 0);" text-anchor="start" dy=".2em" transform="rotate(-74.1364) translate(22.9806) rotate(0)">
<tspan x="0">1998 Pie Guys Band</tspan>
<tspan x="0" dy="1em">10.5 G</tspan>
</text>
<text style="opacity: 1; fill: rgb(0, 0, 0);" text-anchor="start" dy=".2em" transform="rotate(-41.4091) translate(22.9806) rotate(0)">
<tspan x="0">2001 Wedding Video</tspan>
<tspan x="0" dy="1em">12.1 G</tspan>
</text>
<text style="opacity: 1; fill: rgb(0, 0, 0);" text-anchor="start" dy=".2em" transform="rotate(-41.4091) translate(49.2734) rotate(0)">
<tspan x="0">2001 Wedding Video 1...</tspan>
<tspan x="0" dy="1em">855.7 M</tspan>
</text>
<text style="opacity: 1; fill: rgb(0, 0, 0);" text-anchor="start" dy=".2em" transform="rotate(-8.68182) translate(22.9806) rotate(0)">
<tspan x="0">2005 Disney</tspan>
<tspan x="0" dy="1em">3034.0 M</tspan>
</text>
<text style="opacity: 1; fill: rgb(0, 0, 0);" text-anchor="start" dy=".2em" transform="rotate(24.0455) translate(22.9806) rotate(0)">
<tspan x="0">2008-01 Island Lake ...</tspan>
<tspan x="0" dy="1em">11.0 G</tspan>
</text>
<text style="opacity: 1; fill: rgb(0, 0, 0);" text-anchor="start" dy=".2em" transform="rotate(56.7727) translate(22.9806) rotate(0)">
<tspan x="0">2009 Family HelmetCa...</tspan>
<tspan x="0" dy="1em">5005.0 M</tspan>
</text>
<text style="opacity: 1; fill: rgb(0, 0, 0);" text-anchor="start" dy=".2em" transform="rotate(89.5) translate(22.9806) rotate(0)">
<tspan x="0">2009-01 Island Lake ...</tspan>
<tspan x="0" dy="1em">13.0 G</tspan>
</text>
<text style="opacity: 1; fill: rgb(0, 0, 0);" text-anchor="end" dy=".2em" transform="rotate(122.227) translate(22.9806) rotate(-180)">
<tspan x="0">2010 Helmet Cam</tspan>
<tspan x="0" dy="1em">6593.6 M</tspan>
</text>
<text style="opacity: 1; fill: rgb(0, 0, 0);" text-anchor="end" dy=".2em" transform="rotate(154.955) translate(22.9806) rotate(-180)">
<tspan x="0">Jamie videos</tspan>
<tspan x="0" dy="1em">989.8 M</tspan>
</text>
<text style="opacity: 1; fill: rgb(0, 0, 0);" text-anchor="end" dy=".2em" transform="rotate(154.955) translate(49.2734) rotate(-180)">
<tspan x="0">palm</tspan>
<tspan x="0" dy="1em">989.8 M</tspan>
</text>
<text style="opacity: 1; fill: rgb(0, 0, 0);" text-anchor="end" dy=".2em" transform="rotate(187.682) translate(22.9806) rotate(-180)">
<tspan x="0">Jill Baby Vid</tspan>
<tspan x="0" dy="1em">3851.9 M</tspan>
</text>
<text style="opacity: 1; fill: rgb(0, 0, 0);" text-anchor="end" dy=".2em" transform="rotate(187.682) translate(49.2734) rotate(-180)">
<tspan x="0">Jill Baby Vid 2009_0...</tspan>
<tspan x="0" dy="1em">159.5 M</tspan>
</text>
<text style="opacity: 1; fill: rgb(0, 0, 0);" text-anchor="end" dy=".2em" transform="rotate(220.409) translate(22.9806) rotate(-180)">
<tspan x="0">Lou's MBA ceremony</tspan>
<tspan x="0" dy="1em">5048.0 M</tspan>
</text>
<text style="opacity: 1; fill: rgb(0, 0, 0);" text-anchor="end" dy=".2em" transform="rotate(253.136) translate(22.9806) rotate(-180)">
<tspan x="0">Zetta Videos</tspan>
<tspan x="0" dy="1em">0 </tspan>
</text>
<text style="opacity: 1; fill: rgb(0, 0, 0);" text-anchor="end" dy=".2em" transform="rotate(253.136) translate(49.2734) rotate(-180)">
<tspan x="0">montul</tspan>
<tspan x="0" dy="1em">0 </tspan>
</text>
</g>
</svg>
