<?xml version="1.0" standalone="no"?>
<!DOCTYPE svg PUBLIC "-//W3C//DTD SVG 1.1//EN"
"http://www.w3.org/Graphics/SVG/1.1/DTD/svg11.dtd">

<svg xmlns="http://www.w3.org/2000/svg" version="1.1" width="150" height="150">

<g transform="translate(75, 75)">
<path id="pathIdroot" d="M0,43.30127018922193A43.30127018922193,43.30127018922193 0 1,1 0,-43.30127018922193A43.30127018922193,43.30127018922193 0 1,1 0,43.30127018922193Z" fill-rule="evenodd" style="stroke: rgb(255, 255, 255); fill: rgb(49, 130, 189);">
<title>Sunburst</title>
</path>
<path id="pathId6" d="M3.749699716304616e-15,-61.237243569579455A61.237243569579455,61.237243569579455 0 0,1 33.10735342218498,-51.51604749375225L23.410434111966648,-36.42734652276045A43.30127018922193,43.30127018922193 0 0,0 2.651438096812267e-15,-43.30127018922193Z" fill-rule="evenodd" style="stroke: rgb(255, 255, 255); fill: rgb(49, 130, 189);">
<title>1998 Pie Guys Band 10.5 G size 6 files</title>
</path>
<path id="pathId17" d="M33.10735342218498,-51.51604749375225A61.237243569579455,61.237243569579455 0 0,1 55.70335605820721,-25.43887033365653L39.38822080360707,-17.987997718653823A43.30127018922193,43.30127018922193 0 0,0 23.410434111966648,-36.42734652276045Z" fill-rule="evenodd" style="stroke: rgb(255, 255, 255); fill: rgb(107, 174, 214);">
<title>2001 Wedding Video 11.2 G size 3 files</title>
</path>
<path id="pathId18" d="M40.548061309169825,-63.09401496233858A75,75 0 0,1 68.22239965158889,-31.156125975141478L55.70335605820721,-25.43887033365653A61.237243569579455,61.237243569579455 0 0,0 33.10735342218498,-51.51604749375225Z" fill-rule="evenodd" style="stroke: rgb(255, 255, 255); fill: rgb(107, 174, 214);">
<title>2001 Wedding Video 1.5mbs 855.7 M size 5 files</title>
</path>
<path id="pathId22" d="M55.70335605820721,-25.43887033365653A61.237243569579455,61.237243569579455 0 0,1 60.613936726855016,8.714968414906465L42.8605256939715,6.162413264006939A43.30127018922193,43.30127018922193 0 0,0 39.38822080360707,-17.987997718653823Z" fill-rule="evenodd" style="stroke: rgb(255, 255, 255); fill: rgb(49, 130, 189);">
<title>2005 Disney 3034.0 M size 2 files</title>
</path>
<path id="pathId23" d="M60.613936726855016,8.714968414906465A61.237243569579455,61.237243569579455 0 0,1 46.28002076233771,40.10186626876099L32.72491651450321,28.35630157687697A43.30127018922193,43.30127018922193 0 0,0 42.8605256939715,6.162413264006939Z" fill-rule="evenodd" style="stroke: rgb(255, 255, 255); fill: rgb(49, 130, 189);">
<title>2008-01 Island Lake Lodge CatSkiing Helmet Cam 11.0 G size 3 files</title>
</path>
<path id="pathId26" d="M46.28002076233771,40.10186626876099A61.237243569579455,61.237243569579455 0 0,1 17.252525204779015,58.75670492853105L12.19937756489107,41.54726449514134A43.30127018922193,43.30127018922193 0 0,0 32.72491651450321,28.35630157687697Z" fill-rule="evenodd" style="stroke: rgb(255, 255, 255); fill: rgb(49, 130, 189);">
<title>2009 Family HelmetCam videos 5005.0 M size 44 files</title>
</path>
<path id="pathId28" d="M17.252525204779015,58.75670492853105A61.237243569579455,61.237243569579455 0 0,1 -17.25252520477903,58.75670492853105L-12.199377564891082,41.54726449514134A43.30127018922193,43.30127018922193 0 0,0 12.19937756489107,41.54726449514134Z" fill-rule="evenodd" style="stroke: rgb(255, 255, 255); fill: rgb(49, 130, 189);">
<title>2009-01 Island Lake Lodge CatSkiing Helmet Cam 13.0 G size 4 files</title>
</path>
<path id="pathId29" d="M-17.25252520477903,58.75670492853105A61.237243569579455,61.237243569579455 0 0,1 -46.28002076233773,40.10186626876098L-32.724916514503214,28.35630157687696A43.30127018922193,43.30127018922193 0 0,0 -12.199377564891082,41.54726449514134Z" fill-rule="evenodd" style="stroke: rgb(255, 255, 255); fill: rgb(49, 130, 189);">
<title>2010 Helmet Cam 6593.6 M size 114 files</title>
</path>
<path id="pathId30" d="M-46.28002076233773,40.10186626876098A61.237243569579455,61.237243569579455 0 0,1 -60.61393672685501,8.714968414906473L-42.860525693971496,6.162413264006943A43.30127018922193,43.30127018922193 0 0,0 -32.724916514503214,28.35630157687696Z" fill-rule="evenodd" style="stroke: rgb(255, 255, 255); fill: rgb(158, 202, 225);">
<title>Jamie videos 0 size 0 files</title>
</path>
<path id="pathId31" d="M-56.68121807656939,49.11455504589637A75,75 0 0,1 -74.23660814106995,10.673612870496388L-60.61393672685501,8.714968414906473A61.237243569579455,61.237243569579455 0 0,0 -46.28002076233773,40.10186626876098Z" fill-rule="evenodd" style="stroke: rgb(255, 255, 255); fill: rgb(158, 202, 225);">
<title>palm 989.8 M size 5 files</title>
</path>
<path id="pathId33" d="M-60.61393672685501,8.714968414906473A61.237243569579455,61.237243569579455 0 0,1 -55.70335605820722,-25.438870333656517L-39.38822080360708,-17.987997718653812A43.30127018922193,43.30127018922193 0 0,0 -42.860525693971496,6.162413264006943Z" fill-rule="evenodd" style="stroke: rgb(255, 255, 255); fill: rgb(198, 219, 239);">
<title>Jill Baby Vid 3692.5 M size 2 files</title>
</path>
<path id="pathId34" d="M-74.23660814106995,10.673612870496388A75,75 0 0,1 -68.22239965158889,-31.156125975141457L-55.70335605820722,-25.438870333656517A61.237243569579455,61.237243569579455 0 0,0 -60.61393672685501,8.714968414906473Z" fill-rule="evenodd" style="stroke: rgb(255, 255, 255); fill: rgb(198, 219, 239);">
<title>Jill Baby Vid 2009_01_19_23_40_07 159.5 M size 4 files</title>
</path>
<path id="pathId35" d="M-55.70335605820722,-25.438870333656517A61.237243569579455,61.237243569579455 0 0,1 -33.107353422185014,-51.516047493752225L-23.410434111966673,-36.42734652276044A43.30127018922193,43.30127018922193 0 0,0 -39.38822080360708,-17.987997718653812Z" fill-rule="evenodd" style="stroke: rgb(255, 255, 255); fill: rgb(49, 130, 189);">
<title>Lou's MBA ceremony 5048.0 M size 2 files</title>
</path>
<path id="pathId36" d="M-33.107353422185014,-51.516047493752225A61.237243569579455,61.237243569579455 0 0,1 -6.563869736933458e-14,-61.237243569579455L-4.641356801810808e-14,-43.30127018922193A43.30127018922193,43.30127018922193 0 0,0 -23.410434111966673,-36.42734652276044Z" fill-rule="evenodd" style="stroke: rgb(255, 255, 255); fill: rgb(230, 85, 13);">
<title>Zetta Videos 3.5 G size 2 files</title>
</path>
<path id="pathId37" d="M-40.54806130916987,-63.094014962338555A75,75 0 0,1 -8.039065796791711e-14,-75L-6.563869736933458e-14,-61.237243569579455A61.237243569579455,61.237243569579455 0 0,0 -33.107353422185014,-51.516047493752225Z" fill-rule="evenodd" style="stroke: rgb(255, 255, 255); fill: rgb(230, 85, 13);">
<title>montul 0 size 0 files</title>
</path>
</g>
</svg>
